<svg width="800" height="320" xmlns="http://www.w3.org/2000/svg">
 <!-- Created with Method Draw - http://github.com/duopixel/Method-Draw/ -->
 <g>
  <title>background</title>
  <rect x="-1" y="-1" width="802" height="602" id="canvas_background" fill="#fff0"/>
  <g id="canvasGrid" display="none">
   <rect id="svg_1" width="100%" height="100%" x="0" y="0" stroke-width="0" fill="url(#gridpattern)"/>
  </g>
 </g>
 <g>
  <title>Layer 1</title>
  <path id="svg_2" d="m-36.5,60.05c0,-49.17127 41.39503,-89 92.5,-89c51.10497,0 92.5,39.82873 92.5,89c0,49.17127 -41.39503,89 -92.5,89c-51.10497,0 -92.5,-39.82873 -92.5,-89z" stroke-opacity="null" stroke-linecap="null" stroke-linejoin="null" stroke-width="0" stroke="#000" fill-opacity="null" fill="#235ad1"/>
  <path id="svg_4" d="m-70.5,167.55c0,-37.29282 33.33978,-67.5 74.5,-67.5c41.16022,0 74.5,30.20718 74.5,67.5c0,37.29282 -33.33978,67.5 -74.5,67.5c-41.16022,0 -74.5,-30.20718 -74.5,-67.5z" stroke-opacity="null" stroke-linecap="null" stroke-linejoin="null" stroke-width="0" stroke="#000" fill-opacity="null" fill="#235ad1"/>
  <path id="svg_5" d="m33.49999,156.05c0,-41.43646 38.48619,-75 86,-75c47.51381,0 86,33.56354 86,75c0,41.43646 -38.48619,75 -86,75c-47.51381,0 -86,-33.56354 -86,-75z" stroke-opacity="null" stroke-linecap="null" stroke-linejoin="null" stroke-width="0" stroke="#000" fill-opacity="null" fill="#235ad1"/>
  <path id="svg_6" d="m13.5,225.55c0,-20.71823 18.57182,-37.5 41.5,-37.5c22.92818,0 41.5,16.78177 41.5,37.5c0,20.71823 -18.57182,37.5 -41.5,37.5c-22.92818,0 -41.5,-16.78177 -41.5,-37.5z" stroke-opacity="null" stroke-linecap="null" stroke-linejoin="null" stroke-width="0" stroke="#000" fill-opacity="null" fill="#235ad1"/>
  <path id="svg_7" d="m103.49999,52.55c0,-38.95028 34.23481,-70.5 76.5,-70.5c42.26519,0 76.5,31.54972 76.5,70.5c0,38.95028 -34.23481,70.5 -76.5,70.5c-42.26519,0 -76.5,-31.54972 -76.5,-70.5z" stroke-opacity="null" stroke-linecap="null" stroke-linejoin="null" stroke-width="0" stroke="#000" fill-opacity="null" fill="#235ad1"/>
  <path id="svg_8" d="m83.49999,19.05c0,-18.78453 21.70442,-34 48.5,-34c26.79558,0 48.5,15.21547 48.5,34c0,18.78453 -21.70442,34 -48.5,34c-26.79558,0 -48.5,-15.21547 -48.5,-34z" stroke-opacity="null" stroke-linecap="null" stroke-linejoin="null" stroke-width="0" stroke="#000" fill-opacity="null" fill="#235ad1"/>
  <path id="svg_10" d="m200.49999,38.55c0,-26.24309 24.3895,-47.5 54.5,-47.5c30.1105,0 54.5,21.25691 54.5,47.5c0,26.24309 -24.3895,47.5 -54.5,47.5c-30.1105,0 -54.5,-21.25691 -54.5,-47.5z" stroke-opacity="null" stroke-linecap="null" stroke-linejoin="null" stroke-width="0" stroke="#000" fill-opacity="null" fill="#235ad1"/>
  <path id="svg_11" d="m167.49999,125.55c0,-35.08287 32.89227,-63.5 73.5,-63.5c40.60773,0 73.5,28.41713 73.5,63.5c0,35.08287 -32.89227,63.5 -73.5,63.5c-40.60773,0 -73.5,-28.41713 -73.5,-63.5z" stroke-opacity="null" stroke-linecap="null" stroke-linejoin="null" stroke-width="0" stroke="#000" fill-opacity="null" fill="#235ad1"/>
  <path id="svg_12" d="m270.49999,55.05c0,-39.77901 32.22099,-72 72,-72c39.77901,0 72,32.22099 72,72c0,39.77901 -32.22099,72 -72,72c-39.77901,0 -72,-32.22099 -72,-72z" stroke-opacity="null" stroke-linecap="null" stroke-linejoin="null" stroke-width="0" stroke="#000" fill-opacity="null" fill="#235ad1"/>
  <path id="svg_13" d="m249.49999,21.05c0,-19.8895 24.83702,-36 55.5,-36c30.66298,0 55.5,16.1105 55.5,36c0,19.8895 -24.83702,36 -55.5,36c-30.66298,0 -55.5,-16.1105 -55.5,-36z" stroke-opacity="null" stroke-linecap="null" stroke-linejoin="null" stroke-width="0" stroke="#000" fill-opacity="null" fill="#235ad1"/>
  <path id="svg_14" d="m119.49999,207.05c0,-45.30387 39.15746,-82 87.5,-82c48.34254,0 87.5,36.69613 87.5,82c0,45.30387 -39.15746,82 -87.5,82c-48.34254,0 -87.5,-36.69613 -87.5,-82z" stroke-opacity="null" stroke-linecap="null" stroke-linejoin="null" stroke-width="0" stroke="#000" fill-opacity="null" fill="#235ad1"/>
  <path id="svg_15" d="m371.49999,24.05c0,-20.99448 18.34807,-38 41,-38c22.65193,0 41,17.00552 41,38c0,20.99448 -18.34807,38 -41,38c-22.65193,0 -41,-17.00552 -41,-38z" stroke-opacity="null" stroke-linecap="null" stroke-linejoin="null" stroke-width="0" stroke="#000" fill-opacity="null" fill="#235ad1"/>
  <path id="svg_16" d="m418.49999,12.05c0,-9.94475 23.27072,-18 52,-18c28.72928,0 52,8.05525 52,18c0,9.94475 -23.27072,18 -52,18c-28.72928,0 -52,-8.05525 -52,-18z" stroke-opacity="null" stroke-linecap="null" stroke-linejoin="null" stroke-width="0" stroke="#000" fill-opacity="null" fill="#235ad1"/>
  <path id="svg_17" d="m693.49999,52.05c0,-33.70166 27.07459,-61 60.5,-61c33.42541,0 60.5,27.29834 60.5,61c0,33.70166 -27.07459,61 -60.5,61c-33.42541,0 -60.5,-27.29834 -60.5,-61z" stroke-opacity="null" stroke-linecap="null" stroke-linejoin="null" stroke-width="0" stroke="#000" fill-opacity="null" fill="#235ad1"/>
  <path id="svg_18" d="m763.49998,24.05c0,-18.23204 20.13812,-33 45,-33c24.86188,0 45,14.76796 45,33c0,18.23204 -20.13812,33 -45,33c-24.86188,0 -45,-14.76796 -45,-33z" stroke-opacity="null" stroke-linecap="null" stroke-linejoin="null" stroke-width="0" stroke="#000" fill-opacity="null" fill="#235ad1"/>
  <path id="svg_19" d="m744.49998,127.05c0,-27.62431 24.16575,-50 54,-50c29.83425,0 54,22.37569 54,50c0,27.62431 -24.16575,50 -54,50c-29.83425,0 -54,-22.37569 -54,-50z" stroke-opacity="null" stroke-linecap="null" stroke-linejoin="null" stroke-width="0" stroke="#000" fill-opacity="null" fill="#235ad1"/>
  <path id="svg_20" d="m504.49999,18.05c0,-17.12707 13.87293,-31 31,-31c17.12707,0 31,13.87293 31,31c0,17.12707 -13.87293,31 -31,31c-17.12707,0 -31,-13.87293 -31,-31z" stroke-opacity="null" stroke-linecap="null" stroke-linejoin="null" stroke-width="0" stroke="#000" fill-opacity="null" fill="#235ad1"/>
  <path d="M 572.5 -10.95 A 32 21.5 0 1 0 572.5 32.05 A 32 21.5 0 1 0 572.5 -10.95" fill="#235ad1" stroke="#000" stroke-width="0" stroke-opacity="null" fill-opacity="null" id="svg_21"/>
  <path d="M 673 -10.95 A 53.5 52.5 0 1 0 673 94.05 A 53.5 52.5 0 1 0 673 -10.95" fill="#235ad1" stroke="#000" stroke-width="0" stroke-opacity="null" fill-opacity="null" id="svg_22"/>
  <path id="svg_23" d="m684.49999,14.05c0,-18.23204 17.45304,-33 39,-33c21.54696,0 39,14.76796 39,33c0,18.23204 -17.45304,33 -39,33c-21.54696,0 -39,-14.76796 -39,-33z" stroke-opacity="null" stroke-linecap="null" stroke-linejoin="null" stroke-width="0" stroke="#000" fill-opacity="null" fill="#235ad1"/>
  <path id="svg_24" d="m589.49999,24.05c0,-18.78453 15.88674,-34 35.5,-34c19.61326,0 35.5,15.21547 35.5,34c0,18.78453 -15.88674,34 -35.5,34c-19.61326,0 -35.5,-15.21547 -35.5,-34z" stroke-opacity="null" stroke-linecap="null" stroke-linejoin="null" stroke-width="0" stroke="#000" fill-opacity="null" fill="#235ad1"/>
  <path d="M 710.5 84.05 A 24 24 0 1 0 710.5 132.05 A 24 24 0 1 0 710.5 84.05" fill="#235ad1" stroke="#000" stroke-width="0" stroke-opacity="null" fill-opacity="null" id="svg_25"/>
  <path id="svg_28" d="m652.49999,101.05c0,-29.28177 28.19337,-53 63,-53c34.80663,0 63,23.71823 63,53c0,29.28177 -28.19337,53 -63,53c-34.80663,0 -63,-23.71823 -63,-53z" stroke-opacity="null" stroke-linecap="null" stroke-linejoin="null" stroke-width="0" stroke="#000" fill-opacity="null" fill="#235ad1"/>
  <path id="svg_30" d="m302.49999,239.55c0,-7.45856 6.71271,-13.5 15,-13.5c8.28729,0 15,6.04144 15,13.5c0,7.45856 -6.71271,13.5 -15,13.5c-8.28729,0 -15,-6.04144 -15,-13.5z" stroke-opacity="null" stroke-linecap="null" stroke-linejoin="null" stroke-width="0" stroke="#000" fill-opacity="null" fill="#235ad1"/>
  <path id="svg_32" d="m635.49999,143.05c0,-6.62983 5.37017,-12 12,-12c6.62983,0 12,5.37017 12,12c0,6.62983 -5.37017,12 -12,12c-6.62983,0 -12,-5.37017 -12,-12z" stroke-opacity="null" stroke-linecap="null" stroke-linejoin="null" stroke-width="0" stroke="#000" fill-opacity="null" fill="#235ad1"/>
  <path id="svg_35" d="m655.49999,167.55c0,-5.24862 4.6989,-9.5 10.5,-9.5c5.8011,0 10.5,4.25138 10.5,9.5c0,5.24862 -4.6989,9.5 -10.5,9.5c-5.8011,0 -10.5,-4.25138 -10.5,-9.5z" stroke-opacity="null" stroke-linecap="null" stroke-linejoin="null" stroke-width="0" stroke="#000" fill-opacity="null" fill="#235ad1"/>
  <path id="svg_36" d="m-18.5,247.55c0,-19.06077 17.6768,-34.5 39.5,-34.5c21.8232,0 39.5,15.43923 39.5,34.5c0,19.06077 -17.6768,34.5 -39.5,34.5c-21.8232,0 -39.5,-15.43923 -39.5,-34.5z" stroke-opacity="null" stroke-linecap="null" stroke-linejoin="null" stroke-width="0" stroke="#000" fill-opacity="null" fill="#235ad1"/>
  <path id="svg_37" d="m117.49999,295.04999c0,-5.52486 4.47514,-10 10,-10c5.52486,0 10,4.47514 10,10c0,5.52486 -4.47514,10 -10,10c-5.52486,0 -10,-4.47514 -10,-10z" stroke-opacity="null" stroke-linecap="null" stroke-linejoin="null" stroke-width="0" stroke="#000" fill-opacity="null" fill="#235ad1"/>
  <path d="M 99.5 263.05 A 5 6.5 0 1 0 99.5 276.05 A 5 6.5 0 1 0 99.5 263.05" fill="#235ad1" stroke="#000" stroke-width="0" stroke-opacity="null" fill-opacity="null" id="svg_38"/>
  <path id="svg_39" d="m506.49999,65.05c0,-6.62983 5.37017,-12 12,-12c6.62983,0 12,5.37017 12,12c0,6.62983 -5.37017,12 -12,12c-6.62983,0 -12,-5.37017 -12,-12z" stroke-opacity="null" stroke-linecap="null" stroke-linejoin="null" stroke-width="0" stroke="#000" fill-opacity="null" fill="#235ad1"/>
  <path fill="#235ad1" fill-opacity="null" stroke="#000" stroke-width="0" stroke-linejoin="null" stroke-linecap="null" stroke-opacity="null" d="m479.49999,88.05c0,-3.8674 3.35635,-7 7.5,-7c4.14365,0 7.5,3.1326 7.5,7c0,3.8674 -3.35635,7 -7.5,7c-4.14365,0 -7.5,-3.1326 -7.5,-7z" id="svg_41"/>
 </g>
</svg>